<?xml version="1.0" encoding="UTF-8" standalone="no"?>
<!-- Created with Inkscape (http://www.inkscape.org/) -->

<svg
   xmlns:dc="http://purl.org/dc/elements/1.1/"
   xmlns:cc="http://creativecommons.org/ns#"
   xmlns:rdf="http://www.w3.org/1999/02/22-rdf-syntax-ns#"
   xmlns:svg="http://www.w3.org/2000/svg"
   xmlns="http://www.w3.org/2000/svg"
   xmlns:sodipodi="http://sodipodi.sourceforge.net/DTD/sodipodi-0.dtd"
   xmlns:inkscape="http://www.inkscape.org/namespaces/inkscape"
   version="1.1"
   id="svg2"
   xml:space="preserve"
   width="377.94666"
   height="377.94666"
   viewBox="0 0 377.94666 377.94666"
   sodipodi:docname="Brandenburg_Signet_pos-Blue_CMYK.svg"
   inkscape:version="0.92.3 (2405546, 2018-03-11)"><metadata
     id="metadata8"><rdf:RDF><cc:Work
         rdf:about=""><dc:format>image/svg+xml</dc:format><dc:type
           rdf:resource="http://purl.org/dc/dcmitype/StillImage" /><dc:title></dc:title></cc:Work></rdf:RDF></metadata><defs
     id="defs6" /><sodipodi:namedview
     pagecolor="#ffffff"
     bordercolor="#666666"
     borderopacity="1"
     objecttolerance="10"
     gridtolerance="10"
     guidetolerance="10"
     inkscape:pageopacity="0"
     inkscape:pageshadow="2"
     inkscape:window-width="1680"
     inkscape:window-height="993"
     id="namedview4"
     showgrid="false"
     inkscape:zoom="0.72784514"
     inkscape:cx="-164.89382"
     inkscape:cy="-33.707685"
     inkscape:window-x="0"
     inkscape:window-y="0"
     inkscape:window-maximized="1"
     inkscape:current-layer="g12" /><g
     id="g10"
     inkscape:groupmode="layer"
     inkscape:label="ink_ext_XXXXXX"
     transform="matrix(1.3333333,0,0,-1.3333333,0,377.94667)"><g
       id="g12"
       transform="scale(0.1)"><path
         d="M 1417.31,10.2891 C 641.488,10.2891 10.293,641.48 10.293,1417.33 c 0,775.83 631.195,1407.02 1407.017,1407.02 775.85,0 1407.05,-631.19 1407.05,-1407.02 0,-775.85 -631.2,-1407.0409 -1407.05,-1407.0409 v 0"
         style="fill:#ffffff;fill-opacity:1;fill-rule:nonzero;stroke:none"
         id="path14"
         inkscape:connector-curvature="0" /><path
         d="m 2834.37,1417.33 c 0,782.61 -634.39,1417.03 -1417.06,1417.03 C 634.688,2834.36 0.28125,2199.94 0.28125,1417.33 0.28125,634.691 634.688,0.28125 1417.31,0.28125 c 782.67,0 1417.06,634.40975 1417.06,1417.04875"
         style="fill:#127bca;fill-opacity:1;fill-rule:nonzero;stroke:none"
         id="path16"
         inkscape:connector-curvature="0" /><path
         d="m 1731.18,1698.36 c -35.18,-28.18 -72.11,-53.39 -102.61,-82.11 -55,-51.71 -99.98,-88.62 -99.98,-88.62 -5.55,-1.64 -20.04,-2.15 -29.55,-3.67 -116.25,-18.87 -219.69,-43.18 -341.75,-87.3 -9.01,-3.31 -18.09,-6.71 -27.21,-10.21 7.26,139.97 12.41,300.17 12.41,443.56 0,131.36 -9.81,247.05 -23.33,344.35 79.44,8.53 138.97,18.62 258.22,20.58 152.68,2.51 249.73,-17.44 317.16,-38.78 61.65,-19.58 97.71,-59.22 100.49,-87.56 2.85,-28.36 -27.86,-72.26 -87.7,-117.69 -57.55,-43.82 -127.68,-93.68 -221.37,-150.43 -93.62,-56.7 -210.57,-108.98 -204.27,-119.17 6.21,-10.29 175.6,2.79 348.42,-12.08 37.73,-3.27 61.13,-5.13 101.07,-10.87 z m -215.75,-568.53 c 72.27,2.74 122.07,-4.57 128.94,-26.22 6.95,-22.36 -50.25,-85.46 -92.89,-132.231 -42.49,-46.859 -98.8,-94.379 -199.21,-163.149 -68.65,-47.058 -170.96,-94.859 -185.85,-82.109 -14.87,12.738 -18.14,46.051 21.67,159.707 25.69,73.043 79.41,187.392 130.82,269.512 80.75,129.01 228.03,293.44 228.03,293.44 0,0 59.47,4.85 101.96,1.5 59.24,-4.55 100.27,-29.62 36.5,-86.61 -33.72,-30.12 -90.11,-83.28 -166.45,-139.14 -69.23,-50.52 -120.02,-86.69 -118.68,-91.26 1.21,-4.62 44.65,-6.06 115.16,-3.44 z m 625.97,424.82 c 144.81,-97.03 141.23,-306.68 -57.19,-518.58 -198.27,-211.57 -591.6,-443.351 -974.14,-519.75 -339.277,-67.718 -494.941,-5.41 -553.84,54.75 -53.906,55.071 -126.933,211.692 128.555,503.69 43.899,50.17 125.742,115.25 225.039,174.82 36.309,21.77 69.989,40.44 103.586,57.22 31.35,-178.38 79.6,-250.33 79.6,-250.33 9.53,0.77 22.74,128.07 33.17,300.08 23.75,9.31 48.72,18.34 75.64,27.6 121.59,41.85 246.98,52.56 246.98,52.56 0,0 -110.18,-124.73 -187.56,-254.08 -54,-90.06 -128.79,-252.751 -162.7,-379.571 -29.01,-108.508 -27.91,-155.61 -11.93,-167.028 26.16,-18.742 143.66,5.719 264.92,57.957 75.92,32.742 196,111.442 275.87,182.321 62.6,55.461 132.45,119.351 152.2,196.861 15.87,62.24 -18.21,83.63 -63.56,100.34 -40.07,14.81 -94.19,11.03 -94.78,15.56 -0.65,4.65 78.54,50.61 114.32,76.42 44.39,32.17 98.5,77.49 115.54,127.03 35.03,101.95 -44.75,130.87 -165.72,135.34 -13.46,0.51 -57.12,1.57 -57.12,1.57 0,0 65.89,67.25 187.31,150.27 1.82,1.28 31,-5.26 31,-5.26 125.36,-30.83 213.26,-65.21 294.81,-119.79 z m 182.7,497.8 C 2204.74,2003.8 2091.38,1941.46 2029.07,1908 c -80.53,-43.11 -211.44,-130.75 -211.44,-130.75 -125.36,18.27 -218.9,11.49 -218.9,15.34 0,3.99 41.25,17.13 77.53,35.12 38.03,18.99 293.2,146.13 296.49,262.51 4.32,153.71 -229.87,221.34 -319.24,238.37 -119.64,22.75 -260.26,40.57 -550.86,-12.97 -29.14,155.99 -63.54,243.2 -63.54,243.2 -15.11,0 -26.93,-111.55 -35.32,-264.73 -162.306,-41.96 -233.661,-95.94 -225.794,-111.62 4.953,-9.97 52.531,-4.29 103.547,1.41 27.383,3.01 70.898,9.07 117.617,15.46 -7.883,-183.43 -11.789,-400.62 -11.789,-558.94 0,-106.02 6.524,-195.46 16.359,-269.9 C 874.48,1305.86 750.398,1220.74 656.66,1126.37 526.68,995.66 444.512,845.109 437.695,725 c -3.332,-58.969 2.649,-220.961 234.91,-286.211 109.446,-30.82 341.415,-67.199 710.225,41.191 414.32,121.809 778.18,406.11 873.76,528.87 55.15,70.88 189.57,235.22 106.34,445.73 -70.51,178.06 -316.17,271.31 -454.69,303.56 95.67,70.45 224.46,145.36 300.23,184.85 157.32,82.12 332.92,150.5 363.26,179.45 7.31,6.76 -124.54,-19.79 -247.63,-69.99"
         style="fill:#ffffff;fill-opacity:1;fill-rule:nonzero;stroke:none"
         id="path18"
         inkscape:connector-curvature="0" /></g></g></svg>