<?xml version="1.0" encoding="UTF-8" standalone="no"?>
<svg
   xmlns:dc="http://purl.org/dc/elements/1.1/"
   xmlns:cc="http://creativecommons.org/ns#"
   xmlns:rdf="http://www.w3.org/1999/02/22-rdf-syntax-ns#"
   xmlns:svg="http://www.w3.org/2000/svg"
   xmlns="http://www.w3.org/2000/svg"
   xmlns:sodipodi="http://sodipodi.sourceforge.net/DTD/sodipodi-0.dtd"
   xmlns:inkscape="http://www.inkscape.org/namespaces/inkscape"
   id="emoji"
   viewBox="0 0 72 72"
   version="1.1"
   sodipodi:docname="1F637-rainbow.svg"
   inkscape:version="0.92.3 (2405546, 2018-03-11)">
  <metadata
     id="metadata43">
    <rdf:RDF>
      <cc:Work
         rdf:about="">
        <dc:format>image/svg+xml</dc:format>
        <dc:type
           rdf:resource="http://purl.org/dc/dcmitype/StillImage" />
      </cc:Work>
    </rdf:RDF>
  </metadata>
  <defs
     id="defs41">
    <clipPath
       clipPathUnits="userSpaceOnUse"
       id="clipPath1092">
      <path
         id="path1094"
         d="M 4.4457305,106.52496 C 3.5767003,105.76011 -0.33374635,100.04023 -0.47615803,98.888154 -1.7411269,88.65815 4.6614109,84.811438 8.6850876,81.405245 11.031612,83.12649 22.807744,104.33517 23.892239,106.05145 c -8.229036,4.40819 -10.523228,4.06942 -19.4536289,0.47317 z"
         inkscape:connector-curvature="0"
         style="fill:#ffffff" />
    </clipPath>
    <clipPath
       clipPathUnits="userSpaceOnUse"
       id="clipPath1096">
      <path
         id="path1098"
         d="M 4.4457305,106.52496 C 3.5767003,105.76011 -0.33374635,100.04023 -0.47615803,98.888154 -1.7411269,88.65815 4.6614109,84.811438 8.6850876,81.405245 11.031612,83.12649 22.807744,104.33517 23.892239,106.05145 c -8.229036,4.40819 -10.523228,4.06942 -19.4536289,0.47317 z"
         inkscape:connector-curvature="0"
         style="fill:#ffffff" />
    </clipPath>
    <clipPath
       clipPathUnits="userSpaceOnUse"
       id="clipPath1100">
      <path
         id="path1102"
         d="M 4.4457305,106.52496 C 3.5767003,105.76011 -0.33374635,100.04023 -0.47615803,98.888154 -1.7411269,88.65815 4.6614109,84.811438 8.6850876,81.405245 11.031612,83.12649 22.807744,104.33517 23.892239,106.05145 c -8.229036,4.40819 -10.523228,4.06942 -19.4536289,0.47317 z"
         inkscape:connector-curvature="0"
         style="fill:#ffffff" />
    </clipPath>
    <clipPath
       clipPathUnits="userSpaceOnUse"
       id="clipPath1104">
      <path
         id="path1106"
         d="M 4.4457305,106.52496 C 3.5767003,105.76011 -0.33374635,100.04023 -0.47615803,98.888154 -1.7411269,88.65815 4.6614109,84.811438 8.6850876,81.405245 11.031612,83.12649 22.807744,104.33517 23.892239,106.05145 c -8.229036,4.40819 -10.523228,4.06942 -19.4536289,0.47317 z"
         inkscape:connector-curvature="0"
         style="fill:#ffffff" />
    </clipPath>
  </defs>
  <sodipodi:namedview
     pagecolor="#ffffff"
     bordercolor="#666666"
     borderopacity="1"
     objecttolerance="10"
     gridtolerance="10"
     guidetolerance="10"
     inkscape:pageopacity="0"
     inkscape:pageshadow="2"
     inkscape:window-width="1600"
     inkscape:window-height="843"
     id="namedview39"
     showgrid="false"
     inkscape:zoom="9.2709556"
     inkscape:cx="42.3232"
     inkscape:cy="38.764549"
     inkscape:window-x="0"
     inkscape:window-y="0"
     inkscape:window-maximized="1"
     inkscape:current-layer="layer2" />
  <g
     inkscape:groupmode="layer"
     id="layer1"
     inkscape:label="bg"
     sodipodi:insensitive="true">
    <circle
       id="circle2"
       r="24"
       cy="36"
       cx="36"
       style="fill:#fcea2b" />
    <path
       id="path4"
       d="M 58.87,38.37 44.59,51.97"
       stroke-miterlimit="10"
       inkscape:connector-curvature="0"
       style="stroke:#ffffff;stroke-width:2;stroke-linecap:round;stroke-linejoin:round;stroke-miterlimit:10" />
    <path
       id="path8"
       d="m 58.91,34.37 -8.4,4.853"
       stroke-miterlimit="10"
       inkscape:connector-curvature="0"
       style="stroke:#ffffff;stroke-width:2;stroke-linecap:round;stroke-linejoin:round;stroke-miterlimit:10" />
    <path
       id="path10"
       d="m 13.17,38.37 13.96,13.6"
       stroke-miterlimit="10"
       inkscape:connector-curvature="0"
       style="stroke:#ffffff;stroke-width:2;stroke-linecap:round;stroke-linejoin:round;stroke-miterlimit:10" />
    <path
       id="path12"
       d="m 13.13,34.37 8.4,4.853"
       stroke-miterlimit="10"
       inkscape:connector-curvature="0"
       style="stroke:#ffffff;stroke-width:2;stroke-linecap:round;stroke-linejoin:round;stroke-miterlimit:10" />
    <path
       style="fill:none;stroke:#000000;stroke-width:2;stroke-linecap:round;stroke-linejoin:round;stroke-miterlimit:10"
       id="path15"
       d="M 47.79,45.69"
       inkscape:connector-curvature="0" />
    <path
       style="fill:none;stroke:#000000;stroke-width:2;stroke-linecap:round;stroke-linejoin:round;stroke-miterlimit:10"
       id="path17"
       d="m 23.24,32.01 c 0,0 3.439,-2.888 7.849,-1.546"
       inkscape:connector-curvature="0" />
    <path
       style="fill:none;stroke:#000000;stroke-width:2;stroke-linecap:round;stroke-linejoin:round;stroke-miterlimit:10"
       id="path19"
       d="m 48.76,32.01 c 0,0 -3.439,-2.888 -7.849,-1.546"
       inkscape:connector-curvature="0" />
    <path
       style="fill:none;stroke:#000000;stroke-width:2;stroke-linecap:round;stroke-linejoin:round;stroke-miterlimit:10"
       id="path21"
       d="m 58.91,33.52 -8.427,4.775"
       inkscape:connector-curvature="0" />
    <path
       style="fill:none;stroke:#000000;stroke-width:2;stroke-linecap:round;stroke-linejoin:round;stroke-miterlimit:10"
       id="path23"
       d="M 58.23,30.14 C 55.642,20.298 46.69,13.03 36.04,13 25.36,12.975 16.36,20.237 13.75,30.1"
       inkscape:connector-curvature="0" />
    <path
       style="fill:none;stroke:#000000;stroke-width:2;stroke-linecap:round;stroke-linejoin:round;stroke-miterlimit:10"
       id="path25"
       d="M 14.49,44.21 C 17.788,52.84 26.14,58.98 35.93,59 45.763,59.02297 54.17,52.872 57.48,44.2"
       inkscape:connector-curvature="0" />
    <path
       style="fill:none;stroke:#000000;stroke-width:2;stroke-linecap:round;stroke-linejoin:round;stroke-miterlimit:10"
       id="path27"
       d="M 13.12,33.5"
       inkscape:connector-curvature="0" />
    <path
       style="fill:none;stroke:#000000;stroke-width:2;stroke-linecap:round;stroke-linejoin:round;stroke-miterlimit:10"
       id="path31"
       d="M 58.96,37.35 48.37,47.65"
       inkscape:connector-curvature="0" />
    <path
       style="fill:none;stroke:#000000;stroke-width:2;stroke-linecap:round;stroke-linejoin:round;stroke-miterlimit:10"
       id="path33"
       d="m 13.05,33.52 8.427,4.775"
       inkscape:connector-curvature="0" />
    <path
       style="fill:none;stroke:#000000;stroke-width:2;stroke-linecap:round;stroke-linejoin:round;stroke-miterlimit:10"
       id="path35"
       d="m 13,37.35 10.59,10.3"
       inkscape:connector-curvature="0" />
  </g>
  <g
     inkscape:groupmode="layer"
     id="layer2"
     inkscape:label="mask">
    <rect
       style="fill:#f40000;fill-opacity:1;stroke:none;stroke-width:5;stroke-miterlimit:4;stroke-dasharray:none;stroke-opacity:1"
       id="rect1048"
       width="32.574852"
       height="7.226871"
       x="-5.1848297"
       y="81.27504"
       transform="rotate(-58.534182,-23.266302,48.451444)"
       clip-path="url(#clipPath1104)" />
    <rect
       style="fill:#ffa52a;fill-opacity:1;stroke:none;stroke-width:5;stroke-miterlimit:4;stroke-dasharray:none;stroke-opacity:1"
       id="rect1048-3"
       width="32.574852"
       height="7.226871"
       x="-5.1848297"
       y="88.501915"
       transform="rotate(-58.534182,-23.266302,48.451444)"
       clip-path="url(#clipPath1100)" />
    <rect
       style="fill:#00bc00;fill-opacity:1;stroke:none;stroke-width:5;stroke-miterlimit:4;stroke-dasharray:none;stroke-opacity:1"
       id="rect1048-6"
       width="32.574852"
       height="7.226871"
       x="-5.1848297"
       y="95.728783"
       transform="rotate(-58.534182,-23.266302,48.451444)"
       clip-path="url(#clipPath1096)" />
    <rect
       style="fill:#973980;fill-opacity:1;stroke:none;stroke-width:5;stroke-miterlimit:4;stroke-dasharray:none;stroke-opacity:1"
       id="rect1048-7"
       width="32.574852"
       height="7.226871"
       x="-5.1848297"
       y="102.95566"
       transform="rotate(-58.534182,-23.266302,48.451444)"
       clip-path="url(#clipPath1092)" />
  </g>
  <g
     inkscape:groupmode="layer"
     id="layer3"
     inkscape:label="mask-outline"
     sodipodi:insensitive="true">
    <path
       style="fill:none;stroke:#000000;stroke-width:2;stroke-linecap:round;stroke-linejoin:round;stroke-miterlimit:10"
       id="path29"
       d="m 21.52,38.4 28.96,-0.1059 c 0,22.21 -28.96,22.25 -28.96,0.1118 z"
       inkscape:connector-curvature="0" />
  </g>
</svg>
